<?xml version="1.0" standalone="no"?>
<!DOCTYPE svg PUBLIC "-//W3C//DTD SVG 20010904//EN"
 "http://www.w3.org/TR/2001/REC-SVG-20010904/DTD/svg10.dtd">
<svg version="1.0" xmlns="http://www.w3.org/2000/svg"
 width="128.000000pt" height="128.000000pt" viewBox="0 0 128.000000 128.000000"
 preserveAspectRatio="xMidYMid meet">
<metadata>
Created by potrace 1.11, written by Peter Selinger 2001-2013
</metadata>
<g transform="translate(0.000000,128.000000) scale(0.100000,-0.100000)"
fill="#000000" stroke="none">
<path d="M523 1220 c-97 -21 -123 -55 -123 -162 l0 -47 117 -3 c79 -2 118 -7
120 -15 3 -9 -45 -13 -186 -15 -173 -3 -192 -5 -218 -24 -63 -45 -95 -166 -76
-280 22 -126 66 -174 159 -174 l51 0 5 73 c3 39 12 87 22 104 31 61 53 67 231
73 174 5 196 12 232 67 15 23 18 50 17 170 0 159 -7 178 -73 217 -37 21 -207
31 -278 16z m11 -76 c19 -18 21 -45 4 -62 -39 -39 -100 17 -63 58 22 24 38 25
59 4z"/>
</g>
</svg>
